<svg id="Layer_1" enable-background="new 0 0 512 512" height="512" viewBox="0 0 512 512" width="512" xmlns="http://www.w3.org/2000/svg"><g><path d="m436 0h-360c-8.284 0-15 6.716-15 15v482c0 8.284 6.716 15 15 15h360c8.284 0 15-6.716 15-15v-482c0-8.284-6.716-15-15-15zm-15 68.787-38.787-38.787h38.787zm-60-17.574 38.787 38.787h-38.787zm-270 430.787v-452h240v75c0 8.284 6.716 15 15 15h75v362z"/><path d="m136.041 90h149.999c8.284 0 15-6.716 15-15s-6.716-15-15-15h-149.999c-8.284 0-15 6.716-15 15s6.716 15 15 15z"/><path d="m136.041 150.001h149.999c8.284 0 15-6.716 15-15s-6.716-15-15-15h-149.999c-8.284 0-15 6.716-15 15s6.716 15 15 15z"/><path d="m376.042 360.001h-240.001c-8.284 0-15 6.716-15 15s6.716 15 15 15h240.001c8.284 0 15-6.716 15-15s-6.716-15-15-15z"/><path d="m320.205 420.001h-184.164c-8.284 0-15 6.716-15 15s6.716 15 15 15h184.164c8.284 0 15-6.716 15-15s-6.716-15-15-15z"/><path d="m136 330h240c8.284 0 15-6.716 15-15s-6.716-15-15-15h-14.999v-28c0-8.284-6.716-15-15-15s-15 6.716-15 15v28h-30v-105.502c0-8.284-6.716-15-15-15s-15 6.716-15 15v105.502h-30.001v-62.445c0-8.284-6.716-15-15-15s-15 6.716-15 15v62.445h-29.999v-104.999c0-8.284-6.716-15-15-15s-15 6.716-15 15v104.999h-15.001c-8.284 0-15 6.716-15 15s6.716 15 15 15z"/></g></svg>