<svg id="Layer_1" enable-background="new 0 0 512 512" height="512" viewBox="0 0 512 512" width="512" xmlns="http://www.w3.org/2000/svg"><g><path d="m436 0h-360c-8.284 0-15 6.716-15 15v482c0 8.284 6.716 15 15 15h360c8.284 0 15-6.716 15-15v-482c0-8.284-6.716-15-15-15zm-15 68.787-38.787-38.787h38.787zm-60-17.574 38.787 38.787h-38.787zm-270 430.787v-452h240v75c0 8.284 6.716 15 15 15h75v362z"/><path d="m136.041 90h149.999c8.284 0 15-6.716 15-15s-6.716-15-15-15h-149.999c-8.284 0-15 6.716-15 15s6.716 15 15 15z"/><path d="m136.041 150.001h149.999c8.284 0 15-6.716 15-15s-6.716-15-15-15h-149.999c-8.284 0-15 6.716-15 15s6.716 15 15 15z"/><path d="m376.201 420.001h-240.16c-8.284 0-15 6.716-15 15s6.716 15 15 15h240.16c8.284 0 15-6.716 15-15s-6.716-15-15-15z"/><path d="m151 285c0 28.489 11.411 54.36 29.895 73.296.274.324.554.645.859.95.306.306.627.586.951.86 18.936 18.484 44.807 29.894 73.296 29.894 57.897 0 105-47.103 105-105s-47.103-105-105-105-105.001 47.103-105.001 105zm90.001-73.491v67.278l-47.543 47.543c-7.864-11.859-12.458-26.065-12.458-41.33 0-36.219 25.809-66.522 60.001-73.491zm90 73.491c0 41.355-33.645 75-75 75-15.264 0-29.471-4.594-41.33-12.458l51.937-51.936c2.813-2.813 4.394-6.628 4.394-10.606v-73.491c34.191 6.969 59.999 37.272 59.999 73.491z"/></g></svg>