<svg id="Layer_1" enable-background="new 0 0 512 512" height="512" viewBox="0 0 512 512" width="512" xmlns="http://www.w3.org/2000/svg"><g clip-rule="evenodd" fill-rule="evenodd"><path d="m436 0h-360c-8.284 0-15 6.716-15 15v482c0 8.284 6.716 15 15 15h360c8.284 0 15-6.716 15-15v-482c0-8.284-6.716-15-15-15zm-15 68.787-38.787-38.787h38.787zm-60-17.574 38.787 38.787h-38.787zm-270 430.787v-452h240v75c0 8.284 6.716 15 15 15h75v362z"/><path d="m136.042 90h149.998c8.284 0 15-6.716 15-15s-6.716-15-15-15h-149.998c-8.284 0-15 6.716-15 15s6.715 15 15 15z"/><path d="m376.042 180.001h-179.963c-8.284 0-15 6.716-15 15s6.716 15 15 15h179.962c8.284 0 15-6.716 15-15s-6.715-15-14.999-15z"/><path d="m195.462 270.001h128c8.284 0 15-6.716 15-15s-6.716-15-15-15h-128c-8.284 0-15 6.716-15 15s6.716 15 15 15z"/><path d="m376.042 300.001h-180.58c-8.284 0-15 6.716-15 15s6.716 15 15 15h180.58c8.284 0 15-6.716 15-15s-6.716-15-15-15z"/><path d="m195.462 390.001h128c8.284 0 15-6.716 15-15s-6.716-15-15-15h-128c-8.284 0-15 6.716-15 15s6.716 15 15 15z"/><path d="m376.042 420.001h-180.58c-8.284 0-15 6.716-15 15s6.716 15 15 15h180.58c8.284 0 15-6.716 15-15s-6.716-15-15-15z"/><circle cx="136.25" cy="194.75" r="14.75"/><circle cx="136.25" cy="255.25" r="14.75"/><circle cx="136.25" cy="314.75" r="14.75"/><circle cx="136.25" cy="374.75" r="14.75"/><circle cx="136.25" cy="434.75" r="14.75"/></g></svg>