<svg id="Layer_1" enable-background="new 0 0 512 512" height="512" viewBox="0 0 512 512" width="512" xmlns="http://www.w3.org/2000/svg"><g><path d="m345 0h-330c-8.284 0-15 6.716-15 15v482c0 8.284 6.716 15 15 15h330c8.284 0 15-6.716 15-15v-482c0-8.284-6.716-15-15-15zm-15 68.787-38.787-38.787h38.787zm-60-17.574 38.787 38.787h-38.787zm-240 430.787v-452h210v75c0 8.284 6.716 15 15 15h75v362z"/><path d="m511.999 94.974c-.063-2.618-.684-5.172-1.995-7.452l-46-80c-2.677-4.653-7.636-7.522-13.004-7.522s-10.327 2.869-13.004 7.523c0 0-45.991 79.985-46 80-1.206 2.097-1.883 4.493-1.983 6.909-.008.197-.013.394-.013.592v371.977c0 24.813 20.187 45 45 45h32c24.813 0 45-20.187 45-45 0-.001 0-371.976-.001-372.027zm-91.999 15.026h62v291h-62zm31-64.908 20.072 34.908h-40.145zm31 421.908c0 8.271-6.729 15-15 15h-32c-8.271 0-15-6.729-15-15v-36h62z"/><path d="m285 180.001h-210c-8.284 0-15 6.716-15 15s6.716 15 15 15h210c8.284 0 15-6.716 15-15s-6.716-15-15-15z"/><path d="m75 270.001h149.248c8.284 0 15-6.716 15-15s-6.716-15-15-15h-149.248c-8.284 0-15 6.716-15 15s6.716 15 15 15z"/><path d="m285 300.001h-210c-8.284 0-15 6.716-15 15s6.716 15 15 15h210c8.284 0 15-6.716 15-15s-6.716-15-15-15z"/><path d="m75 390.001h149.248c8.284 0 15-6.716 15-15s-6.716-15-15-15h-149.248c-8.284 0-15 6.716-15 15s6.716 15 15 15z"/><path d="m285 420.001h-210c-8.284 0-15 6.716-15 15s6.716 15 15 15h210c8.284 0 15-6.716 15-15s-6.716-15-15-15z"/></g></svg>