<svg id="Layer_1" enable-background="new 0 0 512 512" height="512" viewBox="0 0 512 512" width="512" xmlns="http://www.w3.org/2000/svg"><g><path d="m451 181.58v-166.58c0-8.284-6.716-15-15-15h-360c-8.284 0-15 6.716-15 15v166.58c-17.459 6.192-30.001 22.865-30.001 42.42v120c0 19.555 12.542 36.228 30.001 42.42v110.58c0 8.284 6.716 15 15 15h360c8.284 0 15-6.716 15-15v-110.579c17.459-6.192 30.001-22.865 30.001-42.42v-120.001c0-19.554-12.542-36.228-30.001-42.42zm-30-112.793-38.787-38.787h38.787zm-60-17.574 38.787 38.787h-38.787zm-30-21.213v75c0 8.284 6.716 15 15 15h75v59h-330v-149zm-240 452v-93h330v93zm360.001-137.999c0 8.271-6.729 15-15 15h-360.002c-8.271 0-15-6.729-15-15v-120.001c0-8.271 6.729-15 15-15h360.002c8.271 0 15 6.729 15 15z"/><path d="m179.107 260.012c-4.028-7.239-13.161-9.841-20.401-5.813l-7.707 4.289v-4.485c0-8.284-6.716-15-15-15s-15 6.716-15 15v4.485l-7.706-4.288c-7.237-4.029-16.373-1.426-20.401 5.813s-1.426 16.373 5.813 20.401l6.448 3.588-6.448 3.588c-7.239 4.028-9.842 13.162-5.813 20.401 2.743 4.93 7.854 7.708 13.121 7.708 2.468 0 4.971-.61 7.28-1.896l7.706-4.288v4.485c0 8.284 6.716 15 15 15s15-6.716 15-15v-4.486l7.707 4.289c2.31 1.286 4.812 1.896 7.28 1.896 5.268 0 10.378-2.779 13.121-7.708 4.028-7.239 1.426-16.373-5.813-20.401l-6.448-3.588 6.448-3.588c7.239-4.029 9.842-13.163 5.813-20.402z"/><path d="m299.108 260.012c-4.027-7.239-13.161-9.841-20.401-5.813l-7.707 4.289v-4.485c0-8.284-6.716-15-15-15s-15 6.716-15 15v4.485l-7.706-4.288c-7.238-4.029-16.373-1.426-20.401 5.813s-1.426 16.373 5.813 20.401l6.448 3.588-6.448 3.588c-7.239 4.028-9.842 13.162-5.813 20.401 2.743 4.93 7.854 7.708 13.121 7.708 2.468 0 4.971-.61 7.28-1.896l7.706-4.288v4.485c0 8.284 6.716 15 15 15s15-6.716 15-15v-4.486l7.707 4.289c2.31 1.286 4.812 1.896 7.28 1.896 5.268 0 10.378-2.779 13.121-7.708 4.028-7.239 1.426-16.373-5.813-20.401l-6.448-3.588 6.448-3.588c7.239-4.029 9.842-13.163 5.813-20.402z"/><path d="m419.108 260.012c-4.028-7.239-13.161-9.841-20.401-5.813l-7.707 4.289v-4.485c0-8.284-6.716-15-15-15s-15 6.716-15 15v4.485l-7.706-4.288c-7.238-4.029-16.372-1.426-20.401 5.813-4.028 7.239-1.426 16.373 5.813 20.401l6.448 3.588-6.448 3.588c-7.239 4.028-9.842 13.162-5.813 20.401 2.743 4.93 7.854 7.708 13.121 7.708 2.468 0 4.971-.61 7.28-1.896l7.706-4.288v4.485c0 8.284 6.716 15 15 15s15-6.716 15-15v-4.486l7.707 4.289c2.31 1.286 4.812 1.896 7.28 1.896 5.268 0 10.378-2.779 13.121-7.708 4.028-7.239 1.426-16.373-5.813-20.401l-6.448-3.588 6.448-3.588c7.239-4.029 9.842-13.163 5.813-20.402z"/></g></svg>