<svg id="Layer_1" enable-background="new 0 0 512 512" height="512" viewBox="0 0 512 512" width="512" xmlns="http://www.w3.org/2000/svg"><g><path d="m436 0h-360c-8.284 0-15 6.716-15 15v482c0 8.284 6.716 15 15 15h360c8.284 0 15-6.716 15-15v-482c0-8.284-6.716-15-15-15zm-15 68.787-38.787-38.787h38.787zm-60-17.574 38.787 38.787h-38.787zm-270 430.787v-452h240v75c0 8.284 6.716 15 15 15h75v362z"/><path d="m136.041 90h149.999c8.284 0 15-6.716 15-15s-6.716-15-15-15h-149.999c-8.284 0-15 6.716-15 15s6.716 15 15 15z"/><path d="m375.583 207.483h-131.542c-8.284 0-15 6.716-15 15s6.716 15 15 15h131.542c8.284 0 15-6.716 15-15s-6.716-15-15-15z"/><path d="m182.951 210.914c-6.39-5.273-15.844-4.369-21.117 2.02l-15.732 19.06c-5.992-5.422-15.253-5.126-20.885.746-5.734 5.979-5.535 15.474.443 21.208l11.344 10.879c2.801 2.686 6.524 4.174 10.382 4.174.29 0 .581-.008.872-.025 4.165-.242 8.041-2.208 10.697-5.426l26.016-31.518c5.273-6.39 4.369-15.844-2.02-21.118z"/><path d="m375.583 298.483h-131.542c-8.284 0-15 6.716-15 15s6.716 15 15 15h131.542c8.284 0 15-6.716 15-15s-6.716-15-15-15z"/><path d="m182.951 301.914c-6.39-5.273-15.844-4.369-21.117 2.02l-15.732 19.06c-5.992-5.424-15.251-5.127-20.885.745-5.733 5.979-5.535 15.475.443 21.208l11.344 10.879c2.801 2.686 6.524 4.174 10.382 4.174.29 0 .581-.008.872-.025 4.165-.242 8.041-2.208 10.697-5.426l26.016-31.518c5.273-6.389 4.369-15.843-2.02-21.117z"/><path d="m375.583 390.483h-131.542c-8.284 0-15 6.716-15 15s6.716 15 15 15h131.542c8.284 0 15-6.716 15-15s-6.716-15-15-15z"/><path d="m182.951 393.914c-6.39-5.273-15.844-4.369-21.117 2.02l-15.732 19.06c-5.992-5.424-15.251-5.127-20.885.745-5.733 5.979-5.535 15.475.443 21.208l11.344 10.879c2.801 2.686 6.524 4.174 10.382 4.174.29 0 .581-.008.872-.025 4.165-.242 8.041-2.208 10.697-5.426l26.016-31.518c5.273-6.389 4.369-15.843-2.02-21.117z"/><path d="m136.041 150.002h149.999c8.284 0 15-6.716 15-15s-6.716-15-15-15h-149.999c-8.284 0-15 6.716-15 15s6.716 15 15 15z"/></g></svg>