<svg id="Layer_1" enable-background="new 0 0 511.993 511.993" height="512" viewBox="0 0 511.993 511.993" width="512" xmlns="http://www.w3.org/2000/svg"><path d="m405.996.159h-87.822c-1.436-.211-2.903-.214-4.358 0h-207.82c-8.284 0-15 6.716-15 15v402.833c0 8.284 6.716 15 15 15h95v24c0 30.327 24.673 55 55 55s54.999-24.673 54.999-55v-24h95c8.284 0 15-6.716 15-15v-402.833c.001-8.284-6.714-15-14.999-15zm-15 68.621-38.621-38.621h38.621zm-60-17.574 38.787 38.787h-38.787zm-74.999 282.784c-39.701 0-72-32.299-72-72s32.299-72 72-72 72 32.299 72 72-32.299 72-72 72zm0 30c8.622 0 16.997-1.08 24.999-3.104v33.106h-50v-33.107c8.003 2.025 16.378 3.105 25.001 3.105zm-.001 118.003c-13.785 0-25-11.215-25-25v-33h50v33c0 13.785-11.215 25-25 25zm55-79v-55.135c28.249-18.157 47.001-49.863 47.001-85.868 0-56.243-45.757-102-102-102s-102 45.757-102 102c0 36.004 18.751 67.71 47 85.867v55.136h-80v-372.834h180v74.833c0 8.284 6.716 15 15 15h75v283h-80.001z"/></svg>