<svg id="Layer_1" enable-background="new 0 0 512 512" height="512" viewBox="0 0 512 512" width="512" xmlns="http://www.w3.org/2000/svg"><g><path d="m436 0h-360c-8.284 0-15 6.716-15 15v482c0 8.284 6.716 15 15 15h360c8.284 0 15-6.716 15-15v-482c0-8.284-6.716-15-15-15zm-15 68.787-38.787-38.787h38.787zm-60-17.574 38.787 38.787h-38.787zm-270 430.787v-452h240v75c0 8.284 6.716 15 15 15h75v362z"/><path d="m136.042 90h149.998c8.284 0 15-6.716 15-15s-6.716-15-15-15h-149.998c-8.284 0-15 6.716-15 15s6.715 15 15 15z"/><path d="m136.042 150.002h58.96c8.284 0 15-6.716 15-15s-6.716-15-15-15h-58.96c-8.284 0-15 6.716-15 15s6.715 15 15 15z"/><path d="m376.04 391.004c-8.284 0-15 6.716-15 15v15.996h-93.885c.298-.332.595-.666.865-1.027l61.958-83c3.395-4.548 3.933-10.623 1.389-15.696-2.544-5.074-7.733-8.277-13.409-8.277h-46.958v-119c0-8.284-6.716-15-15-15s-15 6.716-15 15v119h-46.958c-5.675 0-10.865 3.203-13.409 8.277-2.544 5.073-2.006 11.148 1.389 15.696l61.958 83c.27.361.567.695.865 1.027h-93.802v-16c0-8.284-6.716-15-15-15s-15 6.716-15 15v31c0 8.284 6.716 15 15 15h239.997c8.284 0 15-6.716 15-15v-30.996c0-8.284-6.716-15-15-15zm-152.083-47.004h64.086l-32.043 42.925z"/></g></svg>