<svg id="Layer_1" enable-background="new 0 0 512 512" height="512" viewBox="0 0 512 512" width="512" xmlns="http://www.w3.org/2000/svg"><g><path d="m75.042 90h130.958c8.284 0 15-6.716 15-15s-6.716-15-15-15h-130.958c-8.284 0-15 6.716-15 15s6.716 15 15 15z"/><path d="m75.042 150.002h130.958c8.284 0 15-6.716 15-15s-6.716-15-15-15h-130.958c-8.284 0-15 6.716-15 15s6.716 15 15 15z"/><path d="m75.042 210.001h240c8.284 0 15-6.716 15-15s-6.716-15-15-15h-240c-8.284 0-15 6.716-15 15s6.716 15 15 15z"/><path d="m75.042 270.001h130.958c8.284 0 15-6.716 15-15s-6.716-15-15-15h-130.958c-8.284 0-15 6.716-15 15s6.716 15 15 15z"/><path d="m75.042 330.002h130.958c8.284 0 15-6.716 15-15s-6.716-15-15-15h-130.958c-8.284 0-15 6.716-15 15s6.716 15 15 15z"/><path d="m60.042 375.001c0 8.284 6.716 15 15 15h240c8.284 0 15-6.716 15-15s-6.716-15-15-15h-240c-8.284 0-15 6.716-15 15z"/><path d="m315.042 420.001h-240c-8.284 0-15 6.716-15 15s6.716 15 15 15h240c8.284 0 15-6.716 15-15s-6.716-15-15-15z"/><path d="m508.084 274.894-62-68c-4.172-4.577-10.732-6.117-16.503-3.88-5.775 2.236-9.581 7.793-9.581 13.986v23h-30v-225c0-8.284-6.716-15-15-15h-360c-8.284 0-15 6.716-15 15v482c0 8.284 6.716 15 15 15h360c8.284 0 15-6.716 15-15v-167h30v23c0 6.193 3.806 11.75 9.581 13.987 1.763.683 3.598 1.014 5.416 1.014 4.139 0 8.188-1.715 11.087-4.894l62-68c5.221-5.727 5.221-14.487 0-20.213zm-148.084-206.107-38.787-38.787h38.787zm-60-17.574 38.787 38.787h-38.787zm60 430.787h-330v-452h240v75c0 8.284 6.716 15 15 15h75v120h-85c-8.284 0-15 6.716-15 15v60c0 8.284 6.716 15 15 15h85zm89.985-167.697c-.366-7.96-6.935-14.303-14.985-14.303h-145v-30h145c8.051 0 14.62-6.342 14.984-14.303l26.717 29.303z"/></g></svg>