<svg id="Layer_1" enable-background="new 0 0 512 512" height="512" viewBox="0 0 512 512" width="512" xmlns="http://www.w3.org/2000/svg"><g><path d="m436 0h-360c-8.284 0-15 6.716-15 15v482c0 8.284 6.716 15 15 15h360c8.284 0 15-6.716 15-15v-482c0-8.284-6.716-15-15-15zm-15 68.787-38.787-38.787h38.787zm-60-17.574 38.787 38.787h-38.787zm-270 430.787v-452h240v75c0 8.284 6.716 15 15 15h75v362z"/><path d="m361.376 243.938c-6.194-5.501-15.675-4.937-21.176 1.258l-18.329 20.644c-18.071-14.756-41.132-23.62-66.227-23.62-57.828 0-104.875 47.047-104.875 104.875s47.047 104.875 104.875 104.875 104.875-47.047 104.875-104.875c0-21.882-6.74-42.217-18.248-59.046l20.363-22.935c5.5-6.196 4.937-15.676-1.258-21.176zm-30.857 103.156c0 41.286-33.589 74.875-74.875 74.875s-74.875-33.589-74.875-74.875 33.589-74.875 74.875-74.875c17.462 0 33.533 6.025 46.282 16.083l-46.288 52.133-16.082-18.095c-5.503-6.192-14.983-6.752-21.177-1.248-6.191 5.503-6.75 14.984-1.247 21.177l27.3 30.717c2.847 3.203 6.927 5.035 11.212 5.035h.004c4.286-.001 8.367-1.836 11.213-5.041l54.622-61.52c5.76 10.603 9.036 22.743 9.036 35.634z"/><path d="m136 89.97h130.959c8.284 0 15-6.716 15-15s-6.716-15-15-15h-130.959c-8.284 0-15 6.716-15 15s6.716 15 15 15z"/><path d="m136 149.971h130.959c8.284 0 15-6.716 15-15s-6.716-15-15-15h-130.959c-8.284 0-15 6.716-15 15s6.716 15 15 15z"/><path d="m375.998 179.97h-239.998c-8.284 0-15 6.716-15 15s6.716 15 15 15h239.998c8.284 0 15-6.716 15-15s-6.716-15-15-15z"/></g></svg>