<svg id="Layer_1" enable-background="new 0 0 512 512" height="512" viewBox="0 0 512 512" width="512" xmlns="http://www.w3.org/2000/svg"><g><path d="m436 0h-360c-8.284 0-15 6.716-15 15v482c0 8.284 6.716 15 15 15h360c8.284 0 15-6.716 15-15v-482c0-8.284-6.716-15-15-15zm-15 68.787-38.787-38.787h38.787zm-60-17.574 38.787 38.787h-38.787zm-270 430.787v-452h240v75c0 8.284 6.716 15 15 15h75v362z"/><path d="m255.644 242.219c-57.828 0-104.875 47.047-104.875 104.875s47.047 104.875 104.875 104.875 104.875-47.047 104.875-104.875-47.047-104.875-104.875-104.875zm0 179.75c-41.286 0-74.875-33.589-74.875-74.875s33.589-74.875 74.875-74.875 74.875 33.589 74.875 74.875-33.589 74.875-74.875 74.875z"/><path d="m136 89.97h130.959c8.284 0 15-6.716 15-15s-6.716-15-15-15h-130.959c-8.284 0-15 6.716-15 15s6.716 15 15 15z"/><path d="m136 149.971h130.959c8.284 0 15-6.716 15-15s-6.716-15-15-15h-130.959c-8.284 0-15 6.716-15 15s6.716 15 15 15z"/><path d="m375.998 179.97h-239.998c-8.284 0-15 6.716-15 15s6.716 15 15 15h239.998c8.284 0 15-6.716 15-15s-6.716-15-15-15z"/><path d="m291.125 311.613c-5.856-5.856-15.354-5.859-21.213 0l-14.269 14.269-14.269-14.269c-5.857-5.858-15.355-5.858-21.213 0s-5.858 15.355 0 21.213l14.269 14.269-14.269 14.269c-5.858 5.857-5.858 15.355 0 21.213 2.929 2.929 6.768 4.394 10.606 4.394s7.678-1.465 10.606-4.394l14.269-14.269 14.269 14.269c2.929 2.929 6.768 4.394 10.606 4.394s7.678-1.464 10.606-4.394c5.858-5.858 5.858-15.355 0-21.213l-14.269-14.269 14.269-14.269c5.86-5.858 5.86-15.355.002-21.213z"/></g></svg>