<svg id="Layer_1" enable-background="new 0 0 512 512" height="512" viewBox="0 0 512 512" width="512" xmlns="http://www.w3.org/2000/svg"><g><path d="m492.022 360.105c-1.721-5.297-6.236-9.205-11.726-10.148l-69.12-11.875-31.934-60.701v-262.381c0-8.284-6.716-15-15-15h-330c-8.284 0-15 6.716-15 15v415c0 8.284 6.716 15 15 15h253.859l-7.229 49.848c-.799 5.512 1.521 11.014 6.028 14.288 4.506 3.274 10.456 3.781 15.452 1.318l62.898-31.021 62.898 31.021c2.102 1.036 4.372 1.547 6.633 1.547 3.113 0 6.208-.968 8.818-2.865 4.506-3.274 6.827-8.775 6.028-14.288l-10.065-69.405 48.938-50.234c3.888-3.991 5.244-9.806 3.522-15.104zm-142.779-291.319-38.786-38.786h38.786zm-59.999-17.573 38.787 38.787h-38.787zm-240.001-21.213h210.001v75c0 8.284 6.716 15 15 15h74.999v161c0 .064.009.126.01.191l-29.931 56.892-69.118 11.875c-5.49.943-10.005 4.851-11.726 10.148-1.722 5.297-.365 11.112 3.521 15.103l38.766 39.791h-231.522zm363.669 379.806c-3.254 3.341-4.77 8.005-4.101 12.62l7.035 48.509-43.961-21.681c-4.183-2.063-9.087-2.063-13.27 0l-43.961 21.681 7.035-48.509c.669-4.615-.846-9.279-4.101-12.62l-34.205-35.11 48.308-8.299c4.597-.79 8.564-3.672 10.735-7.799l22.822-43.38 22.822 43.38c2.171 4.127 6.139 7.01 10.735 7.799l48.31 8.3z"/><path d="m94.244 90h120c8.284 0 15-6.716 15-15s-6.716-15-15-15h-120c-8.284 0-15 6.716-15 15s6.716 15 15 15z"/><path d="m94.244 150.001h120c8.284 0 15-6.716 15-15s-6.716-15-15-15h-120c-8.284 0-15 6.716-15 15s6.716 15 15 15z"/><path d="m94.244 210h210c8.284 0 15-6.716 15-15s-6.716-15-15-15h-210c-8.284 0-15 6.716-15 15s6.716 15 15 15z"/><path d="m94.244 270.002h210c8.284 0 15-6.716 15-15s-6.716-15-15-15h-210c-8.284 0-15 6.716-15 15s6.716 15 15 15z"/><path d="m214.244 300h-120c-8.284 0-15 6.716-15 15s6.716 15 15 15h120c8.284 0 15-6.716 15-15s-6.716-15-15-15z"/></g></svg>