<svg id="Layer_1" enable-background="new 0 0 511.999 511.999" height="512" viewBox="0 0 511.999 511.999" width="512" xmlns="http://www.w3.org/2000/svg"><g><path d="m104.467 90h120c8.284 0 15-6.716 15-15s-6.716-15-15-15h-120c-8.284 0-15 6.716-15 15s6.716 15 15 15z"/><path d="m104.467 150.001h120c8.284 0 15-6.716 15-15s-6.716-15-15-15h-120c-8.284 0-15 6.716-15 15s6.716 15 15 15z"/><path d="m104.467 210h210c8.284 0 15-6.716 15-15s-6.716-15-15-15h-210c-8.284 0-15 6.716-15 15s6.716 15 15 15z"/><path d="m104.467 270.001h210c8.284 0 15-6.716 15-15s-6.716-15-15-15h-210c-8.284 0-15 6.716-15 15s6.716 15 15 15z"/><path d="m224.467 300h-120c-8.284 0-15 6.716-15 15s6.716 15 15 15h120c8.284 0 15-6.716 15-15s-6.716-15-15-15z"/><path d="m389.466 296.913v-281.913c0-8.284-6.716-15-15-15h-330c-8.284 0-15 6.716-15 15v415c0 8.284 6.716 15 15 15h230.048c16.198 39.279 54.896 67 99.952 67 59.588 0 108.066-48.479 108.066-108.066.001-54.5-40.552-99.697-93.066-107.021zm-30-228.126-38.786-38.787h38.787v38.787zm-59.999-17.574 38.787 38.787h-38.787zm-240.001 363.787v-385h210v75c0 8.284 6.716 15 15 15h75v176.913c-52.513 7.325-93.066 52.522-93.066 107.02 0 3.736.191 7.428.563 11.067zm315 66.999c-43.046 0-78.066-35.021-78.066-78.066s35.021-78.066 78.066-78.066 78.066 35.02 78.066 78.066-35.02 78.066-78.066 78.066z"/><path d="m409.271 386.742h-20.179v-20.179c0-8.284-6.716-15-15-15s-15 6.716-15 15v20.179h-20.179c-8.284 0-15 6.716-15 15s6.716 15 15 15h20.179v20.179c0 8.284 6.716 15 15 15s15-6.716 15-15v-20.179h20.179c8.284 0 15-6.716 15-15s-6.716-15-15-15z"/></g></svg>