<svg id="Layer_1" enable-background="new 0 0 512 512" height="512" viewBox="0 0 512 512" width="512" xmlns="http://www.w3.org/2000/svg"><g><path d="m80.75 90h120c8.284 0 15-6.716 15-15s-6.716-15-15-15h-120c-8.284 0-15 6.716-15 15s6.716 15 15 15z"/><path d="m80.75 150.002h120c8.284 0 15-6.716 15-15s-6.716-15-15-15h-120c-8.284 0-15 6.716-15 15s6.716 15 15 15z"/><path d="m80.75 210h210c8.284 0 15-6.716 15-15s-6.716-15-15-15h-210c-8.284 0-15 6.716-15 15s6.716 15 15 15z"/><path d="m290.75 240.002h-210c-8.284 0-15 6.716-15 15s6.716 15 15 15h210c8.284 0 15-6.716 15-15s-6.716-15-15-15z"/><path d="m200.75 300h-120c-8.284 0-15 6.716-15 15s6.716 15 15 15h120c8.284 0 15-6.716 15-15s-6.716-15-15-15z"/><path d="m504.257 489.529-138.507-241.144v-233.385c0-8.284-6.716-15-15-15h-330c-8.284 0-15 6.716-15 15v415c0 8.284 6.716 15 15 15h202.044l-25.576 44.529c-2.666 4.642-2.656 10.353.025 14.986s7.629 7.485 12.982 7.485h281.025c5.353 0 10.3-2.853 12.981-7.485 2.683-4.633 2.692-10.344.026-14.986zm-168.507-420.742-38.787-38.787h38.787zm-60-17.574 38.787 38.787h-38.787zm-240 363.787v-385h210v75c0 8.284 6.716 15 15 15h75v128.341l-95.725 166.659zm200.389 67 114.599-199.52 114.598 199.52z"/><path d="m335.75 356.863v39.5c0 8.284 6.716 15 15 15s15-6.716 15-15v-39.5c0-8.284-6.716-15-15-15s-15 6.716-15 15z"/><path d="m350.75 429c-8.284 0-15 6.716-15 15v1c0 8.284 6.716 15 15 15s15-6.716 15-15v-1c0-8.284-6.716-15-15-15z"/></g></svg>