<svg id="Layer_1" enable-background="new 0 0 511.999 511.999" height="512" viewBox="0 0 511.999 511.999" width="512" xmlns="http://www.w3.org/2000/svg"><g><path d="m45.5 94.5c8.284 0 15-6.716 15-15v-49.5h49.5c8.284 0 15-6.716 15-15s-6.716-15-15-15h-64.364c-4.178 0-7.954 1.711-10.674 4.467-2.753 2.72-4.462 6.494-4.462 10.669v64.364c0 8.284 6.716 15 15 15z"/><path d="m477.037 4.467c-2.72-2.756-6.496-4.467-10.674-4.467h-64.363c-8.284 0-15 6.716-15 15s6.716 15 15 15h49.499v49.5c0 8.284 6.716 15 15 15s15-6.716 15-15v-64.364c0-4.175-1.709-7.949-4.462-10.669z"/><path d="m110 481.999h-49.5v-49.5c0-8.284-6.716-15-15-15s-15 6.716-15 15v64.363c0 4.175 1.709 7.949 4.462 10.669 2.72 2.756 6.496 4.467 10.674 4.467h64.364c8.284 0 15-6.716 15-15s-6.716-14.999-15-14.999z"/><path d="m466.499 417.5c-8.284 0-15 6.716-15 15v49.5h-49.499c-8.284 0-15 6.716-15 15s6.716 15 15 15h64.363c4.178 0 7.954-1.711 10.674-4.467 2.753-2.719 4.462-6.493 4.462-10.669v-64.364c0-8.285-6.716-15-15-15z"/><path d="m406.5 60h-301c-8.284 0-15 6.716-15 15v166h-38c-8.284 0-15 6.716-15 15s6.716 15 15 15h38v166c0 8.284 6.716 15 15 15h301c8.284 0 15-6.716 15-15v-166h38c8.284 0 15-6.716 15-15s-6.716-15-15-15h-38v-166c0-8.285-6.716-15-15-15zm-15 58.787-28.788-28.787h28.788zm-50-7.574 28.787 28.787h-28.787zm-221-21.213h191v65c0 8.284 6.716 15 15 15h65v71h-271zm271 332h-271v-151h271z"/><path d="m266.499 120h-100.999c-8.284 0-15 6.716-15 15s6.716 15 15 15h100.999c8.284 0 15-6.716 15-15s-6.716-15-15-15z"/><path d="m266.499 180h-100.999c-8.284 0-15 6.716-15 15s6.716 15 15 15h100.999c8.284 0 15-6.716 15-15s-6.716-15-15-15z"/><path d="m165.5 331h181c8.284 0 15-6.716 15-15s-6.716-15-15-15h-181c-8.284 0-15 6.716-15 15s6.715 15 15 15z"/><path d="m346.5 361h-181c-8.284 0-15 6.716-15 15s6.716 15 15 15h181c8.284 0 15-6.716 15-15s-6.716-15-15-15z"/></g></svg>