<svg id="Layer_1" enable-background="new 0 0 511.949 511.949" height="512" viewBox="0 0 511.949 511.949" width="512" xmlns="http://www.w3.org/2000/svg"><g><path d="m104.441 90h120c8.284 0 15-6.716 15-15s-6.716-15-15-15h-120c-8.284 0-15 6.716-15 15s6.716 15 15 15z"/><path d="m104.441 150.001h120c8.284 0 15-6.716 15-15s-6.716-15-15-15h-120c-8.284 0-15 6.716-15 15s6.716 15 15 15z"/><path d="m104.441 210h210c8.284 0 15-6.716 15-15s-6.716-15-15-15h-210c-8.284 0-15 6.716-15 15s6.716 15 15 15z"/><path d="m104.441 270.001h210c8.284 0 15-6.716 15-15s-6.716-15-15-15h-210c-8.284 0-15 6.716-15 15s6.716 15 15 15z"/><path d="m224.441 300h-120c-8.284 0-15 6.716-15 15s6.716 15 15 15h120c8.284 0 15-6.716 15-15s-6.716-15-15-15z"/><path d="m450.855 327.519c-17.251-17.251-38.932-27.434-61.414-30.559v-281.96c0-8.284-6.716-15-15-15h-330c-8.284 0-15 6.716-15 15v415c0 8.284 6.716 15 15 15h229.981c5.363 13.064 13.318 25.061 23.605 35.348 21.067 21.067 48.74 31.602 76.414 31.602 27.673 0 55.347-10.534 76.414-31.602 20.411-20.411 31.652-47.548 31.652-76.414s-11.241-56.005-31.652-76.415zm-91.414-258.732-38.787-38.787h38.787zm-60-17.574 38.787 38.787h-38.787zm-240 363.787v-385h210v75c0 8.284 6.716 15 15 15h75v176.96c-22.482 3.125-44.163 13.308-61.414 30.559-20.411 20.411-31.652 47.549-31.652 76.415 0 3.721.19 7.413.56 11.066zm259.799 44.134c-14.745-14.745-22.865-34.349-22.865-55.201 0-15.63 4.563-30.559 13.058-43.266l108.257 108.258c-30.312 20.185-71.733 16.926-98.45-9.791zm119.772-11.313-108.445-108.445c13.188-8.97 28.527-13.473 43.875-13.473 19.991 0 39.982 7.61 55.201 22.829 14.745 14.745 22.865 34.349 22.865 55.202 0 15.888-4.728 31.045-13.496 43.887z"/></g></svg>