<svg id="Layer_1" enable-background="new 0 0 512 512" height="512" viewBox="0 0 512 512" width="512" xmlns="http://www.w3.org/2000/svg"><g><path d="m436 0h-360c-8.284 0-15 6.716-15 15v482c0 8.284 6.716 15 15 15h360c8.284 0 15-6.716 15-15v-482c0-8.284-6.716-15-15-15zm-15 68.787-38.787-38.787h38.787zm-60-17.574 38.787 38.787h-38.787zm-270 430.787v-452h240v75c0 8.284 6.716 15 15 15h75v362z"/><path d="m332.205 152.763c-3.576-2.846-8.253-3.906-12.708-2.88l-66.624 15.35c-7.4 1.705-12.232 8.614-11.556 15.971-.206.991-.317 133.429-.317 133.429-12.544-7.876-28.129-12.552-45-12.552-41.355 0-75 28.077-75 62.589s33.645 62.589 75 62.589 75-28.077 75-62.589c0-1.935 0-100.581 0-100.581l60.431-42.048c4.03-2.804 6.433-7.403 6.433-12.312v-45.229c.001-4.57-2.083-8.891-5.659-11.737zm-136.205 244.495c-24.392 0-45-14.924-45-32.589s20.607-32.589 45-32.589 45 14.924 45 32.589-20.607 32.589-45 32.589zm111.865-195.366-36.865 25.649v-35.699l36.864-8.494v18.544z"/></g></svg>