<svg id="Layer_1" enable-background="new 0 0 512 512" height="512" viewBox="0 0 512 512" width="512" xmlns="http://www.w3.org/2000/svg"><g><path d="m436 0h-360c-8.284 0-15 6.716-15 15v482c0 8.284 6.716 15 15 15h360c8.284 0 15-6.716 15-15v-482c0-8.284-6.716-15-15-15zm-15 68.787-38.787-38.787h38.787zm-60-17.574 38.787 38.787h-38.787zm-270 430.787v-452h240v75c0 8.284 6.716 15 15 15h75v362z"/><path d="m376 222h-60c-8.284 0-15 6.716-15 15v60c0 8.284 6.716 15 15 15h13.701c-6.532 34.099-37.309 60-74.201 60-36.893 0-67.669-25.901-74.201-60h13.701c8.284 0 15-6.716 15-15v-60c0-8.284-6.716-15-15-15h-60c-8.284 0-15 6.716-15 15v60c0 8.284 6.716 15 15 15h15.898c6.764 50.715 51.093 90 104.603 90 53.509 0 97.838-39.285 104.602-90h15.897c8.284 0 15-6.716 15-15v-60c0-8.284-6.716-15-15-15zm-226 30h30v30h-30zm211 30h-30v-30h30z"/></g></svg>