<svg id="Layer_1" enable-background="new 0 0 512 512" height="512" viewBox="0 0 512 512" width="512" xmlns="http://www.w3.org/2000/svg"><g><path d="m436 0h-360c-8.284 0-15 6.716-15 15v482c0 8.284 6.716 15 15 15h360c8.284 0 15-6.716 15-15v-482c0-8.284-6.716-15-15-15zm-15 68.787-38.787-38.787h38.787zm-60-17.574 38.787 38.787h-38.787zm-270 430.787v-452h240v75c0 8.284 6.716 15 15 15h75v362z"/><path d="m337.886 285.778-148-91.462c-4.627-2.86-10.44-2.991-15.19-.341-4.751 2.649-7.695 7.662-7.695 13.101v182.924c0 5.439 2.944 10.452 7.695 13.101 2.274 1.268 4.791 1.899 7.304 1.899 2.738 0 5.474-.749 7.886-2.24l148-91.462c4.422-2.733 7.114-7.561 7.114-12.76s-2.692-10.027-7.114-12.76zm-140.886 77.319v-129.118l104.467 64.56z"/></g></svg>