<svg id="Layer_1" enable-background="new 0 0 512 512" height="512" viewBox="0 0 512 512" width="512" xmlns="http://www.w3.org/2000/svg"><g><path d="m436 0h-360c-8.284 0-15 6.716-15 15v482c0 8.284 6.716 15 15 15h360c8.284 0 15-6.716 15-15v-482c0-8.284-6.716-15-15-15zm-15 68.787-38.787-38.787h38.787zm-60-17.574 38.787 38.787h-38.787zm-270 430.787v-452h240v75c0 8.284 6.716 15 15 15h75v362z"/><path d="m289.653 204.609c-7.883-2.546-16.339 1.779-18.886 9.661l-54.162 167.618c-2.547 7.883 1.778 16.338 9.661 18.886 1.533.495 3.087.73 4.615.73 6.332 0 12.219-4.042 14.271-10.392l54.162-167.618c2.547-7.883-1.778-16.338-9.661-18.885z"/><path d="m201.526 251.352c-5.328-6.343-14.791-7.166-21.133-1.837l-54 45.36c-3.394 2.85-5.353 7.054-5.353 11.485s1.959 8.636 5.353 11.485l54 45.36c2.812 2.362 6.234 3.515 9.64 3.515 4.277 0 8.526-1.821 11.493-5.353 5.328-6.343 4.506-15.805-1.838-21.133l-40.326-33.875 40.326-33.875c6.344-5.327 7.166-14.789 1.838-21.132z"/><path d="m385.688 294.875-54-45.36c-6.343-5.329-15.804-4.506-21.133 1.837-5.328 6.343-4.506 15.805 1.838 21.133l40.326 33.875-40.326 33.875c-6.344 5.328-7.166 14.79-1.838 21.133 2.967 3.532 7.215 5.353 11.493 5.353 3.405 0 6.829-1.153 9.64-3.515l54-45.36c3.394-2.85 5.353-7.054 5.353-11.485s-1.959-8.637-5.353-11.486z"/></g></svg>