<svg id="Layer_1" enable-background="new 0 0 512 512" height="512" viewBox="0 0 512 512" width="512" xmlns="http://www.w3.org/2000/svg"><g><path d="m436 0h-360c-8.284 0-15 6.716-15 15v482c0 8.284 6.716 15 15 15h360c8.284 0 15-6.716 15-15v-482c0-8.284-6.716-15-15-15zm-15 68.787-38.787-38.787h38.787zm-60-17.574 38.787 38.787h-38.787zm-270 430.787v-452h240v75c0 8.284 6.716 15 15 15h75v362z"/><path d="m376 171h-240c-8.284 0-15 6.716-15 15v251c0 8.284 6.716 15 15 15h240c8.284 0 15-6.716 15-15v-251c0-8.284-6.716-15-15-15zm-15 30v141.964l-37.573-65.408c-5.416-9.428-15.141-15.057-26.014-15.057-10.872 0-20.597 5.629-26.013 15.057l-28.875 50.265-68.959-78.708c-5.874-6.704-14.088-10.282-22.566-10.249v-37.864zm-209.998 67.883 134.151 153.117h-134.153zm174.036 153.117-61.616-70.327 33.991-59.173 63.587 110.692v18.808z"/></g></svg>