<svg id="Layer_1" enable-background="new 0 0 512 512" height="512" viewBox="0 0 512 512" width="512" xmlns="http://www.w3.org/2000/svg"><g><path d="m99.5 90.001h120c8.284 0 15-6.716 15-15s-6.716-15-15-15h-120c-8.284 0-15 6.716-15 15s6.716 15 15 15z"/><path d="m99.5 150.002h120c8.284 0 15-6.716 15-15s-6.716-15-15-15h-120c-8.284 0-15 6.716-15 15s6.716 15 15 15z"/><path d="m324.5 195.001c0-8.284-6.716-15-15-15h-210c-8.284 0-15 6.716-15 15s6.716 15 15 15h210c8.285 0 15-6.716 15-15z"/><path d="m227.842 240.002h-128.342c-8.284 0-15 6.716-15 15s6.716 15 15 15h128.342c8.284 0 15-6.716 15-15s-6.716-15-15-15z"/><path d="m219.5 300.001h-120c-8.284 0-15 6.716-15 15s6.716 15 15 15h120c8.284 0 15-6.716 15-15s-6.715-15-15-15z"/><path d="m472.5 320h-36v-13c0-31.787-22.257-58.454-52-65.286v-226.714c0-8.284-6.716-15-15-15h-330c-8.284 0-15 6.716-15 15v415c0 8.284 6.716 15 15 15h216.481c12.324 38.804 48.689 67 91.519 67h44c52.935 0 96-43.065 96-96v-81c0-8.284-6.716-15-15-15zm-66-13v13h-74v-13c0-20.402 16.598-37 37-37s37 16.598 37 37zm-52-238.213-38.787-38.787h38.787zm-60-17.574 38.788 38.787h-38.788zm-28 268.787c-8.284 0-15 6.716-15 15v80h-197v-385h210v75c0 8.284 6.716 15 15 15h75v121.714c-29.743 6.832-52 33.5-52 65.286v13zm191 96c0 36.393-29.607 66-66 66h-44c-36.393 0-66-29.607-66-66v-66h176z"/><path d="m369.5 445c8.284 0 15-6.716 15-15v-27c0-8.284-6.716-15-15-15s-15 6.716-15 15v27c0 8.284 6.716 15 15 15z"/></g></svg>