<svg id="Layer_1" enable-background="new 0 0 512.001 512.001" height="512" viewBox="0 0 512.001 512.001" width="512" xmlns="http://www.w3.org/2000/svg"><g><path d="m497.001 433h-198.577c-4.527-12.764-14.656-22.893-27.42-27.42v-32.58h121.996c8.284 0 15-6.716 15-15v-343c0-8.284-6.716-15-15-15h-274c-8.284 0-15 6.716-15 15v343c0 8.284 6.716 15 15 15h122.004v32.579c-12.764 4.527-22.893 14.656-27.42 27.42h-198.584c-8.284 0-15 6.716-15 15s6.716 15 15 15h198.584c4.527 12.764 14.656 22.893 27.42 27.42v6.581c0 8.284 6.716 15 15 15s15-6.716 15-15v-6.581c12.764-4.527 22.893-14.656 27.42-27.42h198.577c8.284 0 15-6.716 15-15s-6.716-14.999-15-14.999zm-363.001-403h244v313h-244zm122.004 433c-8.271 0-15-6.729-15-15s6.729-15 15-15 15 6.729 15 15-6.729 15-15 15z"/><path d="m179 110h75.002c8.284 0 15-6.716 15-15s-6.716-15-15-15h-75.002c-8.284 0-15 6.716-15 15s6.716 15 15 15z"/><path d="m332.999 140h-153.999c-8.284 0-15 6.716-15 15s6.716 15 15 15h153.999c8.284 0 15-6.716 15-15s-6.716-15-15-15z"/><path d="m332.953 200h-153.953c-8.284 0-15 6.716-15 15s6.716 15 15 15h153.953c8.284 0 15-6.716 15-15s-6.716-15-15-15z"/><path d="m332.953 260h-153.953c-8.284 0-15 6.716-15 15s6.716 15 15 15h153.953c8.284 0 15-6.716 15-15s-6.716-15-15-15z"/></g></svg>