<svg id="Layer_1" enable-background="new 0 0 512 512" height="512" viewBox="0 0 512 512" width="512" xmlns="http://www.w3.org/2000/svg"><g><path d="m484.521 0h-457.042c-8.284 0-15 6.716-15 15v482c0 8.284 6.716 15 15 15h457.041c8.284 0 15-6.716 15-15v-482c.001-8.284-6.715-15-14.999-15zm-442.042 30h306.968v108.965l-43.823 45.646c-2.682 2.794-4.18 6.517-4.18 10.389v287h-258.965zm427.042 452h-138.077v-31.999h93.035c8.284 0 15-6.716 15-15s-6.716-15-15-15h-93.035v-30h93.035c8.284 0 15-6.716 15-15s-6.716-15-15-15h-93.035v-30h93.035c8.284 0 15-6.716 15-15s-6.716-15-15-15h-93.035v-30h93.035c8.284 0 15-6.716 15-15s-6.716-15-15-15h-93.035v-30h93.035c8.284 0 15-6.716 15-15s-6.716-15-15-15h-72.841l23.629-24.612c1.49-1.552 2.598-3.396 3.303-5.388h45.908c8.284 0 15-6.716 15-15s-6.716-15-15-15h-45.032v-30.001h45.032c8.284 0 15-6.716 15-15s-6.716-15-15-15h-45.032v-30h90.073v452z"/><path d="m186.479 362h-99c-8.284 0-15 6.716-15 15v60c0 8.284 6.716 15 15 15h99c8.284 0 15-6.716 15-15v-60c0-8.284-6.715-15-15-15zm-15 60h-69v-30h69z"/></g></svg>