<svg id="Layer_1" enable-background="new 0 0 512 512" height="512" viewBox="0 0 512 512" width="512" xmlns="http://www.w3.org/2000/svg"><g><path d="m436 0h-360c-8.284 0-15 6.716-15 15v482c0 8.284 6.716 15 15 15h360c8.284 0 15-6.716 15-15v-482c0-8.284-6.716-15-15-15zm-15 68.787-38.787-38.787h38.787zm-60-17.574 38.787 38.787h-38.787zm-270 430.787v-452h240v75c0 8.284 6.716 15 15 15h75v362z"/><path d="m376.042 302.001h-240.001c-8.284 0-15 6.716-15 15s6.716 15 15 15h240.001c8.284 0 15-6.716 15-15s-6.716-15-15-15z"/><path d="m376.042 362.001h-240.001c-8.284 0-15 6.716-15 15s6.716 15 15 15h240.001c8.284 0 15-6.716 15-15s-6.716-15-15-15z"/><path d="m376.042 422.001h-240.001c-8.284 0-15 6.716-15 15s6.716 15 15 15h240.001c8.284 0 15-6.716 15-15s-6.716-15-15-15z"/><path d="m163.817 178.859c.445.157 2.815.915 3.558 1.17 21.455 7.36 28.121 11.208 28.034 20.94-.132 14.688-15.337 15.884-20.229 15.884-.045 0-.089 0-.133 0-8.857-.04-22.909-4.313-22.909-15.614 0-8.284-6.716-15-15-15s-15 6.716-15 15c0 23.418 17.168 38.335 37.055 43.538v13.225c0 8.284 6.716 15 15 15s15-6.716 15-15v-12.759c7.185-1.7 13.761-4.713 19.223-8.891 10.829-8.284 16.863-20.754 16.991-35.113.134-14.89-5.937-26.912-18.044-35.731-9.016-6.568-19.812-10.272-30.254-13.854-1.811-.621-5.716-1.964-5.872-2.013-17.34-6.424-20.338-10.925-20.273-18.21.133-14.822 15.585-15.891 20.361-15.884 8.857.04 22.909 4.313 22.909 15.614 0 8.284 6.716 15 15 15s15-6.716 15-15c0-23.417-17.168-38.334-37.054-43.538v-12.73c0-8.284-6.716-15-15-15s-15 6.716-15 15v12.263c-7.185 1.7-13.762 4.714-19.224 8.892-10.829 8.284-16.863 20.754-16.991 35.113-.289 32.459 28.849 42.752 42.852 47.698z"/><path d="m376.042 150.002h-79.078c-8.284 0-15 6.716-15 15s6.716 15 15 15h79.078c8.284 0 15-6.716 15-15s-6.716-15-15-15z"/><path d="m376.042 210.002h-79.078c-8.284 0-15 6.716-15 15s6.716 15 15 15h79.078c8.284 0 15-6.716 15-15s-6.716-15-15-15z"/></g></svg>