<svg id="Layer_1" enable-background="new 0 0 512 512" height="512" viewBox="0 0 512 512" width="512" xmlns="http://www.w3.org/2000/svg"><g><path d="m436 0h-360c-8.284 0-15 6.716-15 15v482c0 8.284 6.716 15 15 15h360c8.284 0 15-6.716 15-15v-482c0-8.284-6.716-15-15-15zm-15 68.787-38.787-38.787h38.787zm-60-17.574 38.787 38.787h-38.787zm-270 430.787v-452h240v75c0 8.284 6.716 15 15 15h75v362z"/><path d="m121 177c0 8.284 6.716 15 15 15s15-6.716 15-15c0-14.888 12.112-27 27-27s27 12.112 27 27c0 8.284 6.716 15 15 15s15-6.716 15-15c0-17.981-8.378-34.034-21.426-44.489 5.901-7.613 9.426-17.155 9.426-27.511 0-24.813-20.187-45-45-45s-45 20.187-45 45c0 10.356 3.525 19.898 9.426 27.511-13.048 10.455-21.426 26.508-21.426 44.489zm42-72c0-8.271 6.729-15 15-15s15 6.729 15 15-6.729 15-15 15-15-6.729-15-15z"/><path d="m376 210.002h-239.993c-8.284 0-15 6.716-15 15s6.716 15 15 15h239.993c8.284 0 15-6.716 15-15s-6.716-15-15-15z"/><path d="m376 150h-96.003c-8.284 0-15 6.716-15 15s6.716 15 15 15h96.003c8.284 0 15-6.716 15-15s-6.716-15-15-15z"/><path d="m376 270h-239.993c-8.284 0-15 6.716-15 15s6.716 15 15 15h239.993c8.284 0 15-6.716 15-15s-6.716-15-15-15z"/><path d="m376 330h-239.993c-8.284 0-15 6.716-15 15s6.716 15 15 15h239.993c8.284 0 15-6.716 15-15s-6.716-15-15-15z"/><path d="m376 390h-239.993c-8.284 0-15 6.716-15 15s6.716 15 15 15h239.993c8.284 0 15-6.716 15-15s-6.716-15-15-15z"/></g></svg>