<svg id="Layer_1" enable-background="new 0 0 512 512" height="512" viewBox="0 0 512 512" width="512" xmlns="http://www.w3.org/2000/svg"><g><path d="m436 0h-360c-8.284 0-15 6.716-15 15v482c0 8.284 6.716 15 15 15h360c8.284 0 15-6.716 15-15v-482c0-8.284-6.716-15-15-15zm-15 68.787-38.787-38.787h38.787zm-60-17.574 38.787 38.787h-38.787zm-270 430.787v-452h240v75c0 8.284 6.716 15 15 15h75v362z"/><path d="m376.042 362.001h-240c-8.284 0-15 6.716-15 15s6.716 15 15 15h240c8.284 0 15-6.716 15-15s-6.716-15-15-15z"/><path d="m376.042 422.001h-240c-8.284 0-15 6.716-15 15s6.716 15 15 15h240c8.284 0 15-6.716 15-15s-6.716-15-15-15z"/><path d="m161 239.26v17.74c0 10.874 5.816 20.414 14.5 25.676v4.324c0 24.813 20.187 45 45 45s45-20.187 45-45v-4.324c8.684-5.262 14.5-14.802 14.5-25.676v-17.74c25.196-18.746 40-47.975 40-79.76 0-54.864-44.636-99.5-99.5-99.5s-99.5 44.636-99.5 99.5c0 31.785 14.804 61.014 40 79.76zm59.5 62.74c-8.271 0-15-6.729-15-15h30c0 8.271-6.729 15-15 15zm0-212c38.322 0 69.5 31.178 69.5 69.5 0 24.211-12.303 46.303-32.911 59.096-4.408 2.736-7.089 7.556-7.089 12.744v25.66h-59v-25.66c0-5.188-2.681-10.008-7.089-12.744-20.608-12.793-32.911-34.885-32.911-59.096 0-38.322 31.178-69.5 69.5-69.5z"/></g></svg>