<svg id="Layer_1" enable-background="new 0 0 512 512" height="512" viewBox="0 0 512 512" width="512" xmlns="http://www.w3.org/2000/svg"><g><path d="m240 276v-261c0-8.284-6.716-15-15-15h-210c-8.284 0-15 6.716-15 15v261c0 8.284 6.716 15 15 15h210c8.284 0 15-6.716 15-15zm-30-15h-180v-231h180z"/><path d="m497 221h-210c-8.284 0-15 6.716-15 15v261c0 8.284 6.716 15 15 15h210c8.284 0 15-6.716 15-15v-261c0-8.284-6.716-15-15-15zm-15 261h-180v-231h180z"/><path d="m275.353 116.486 23.293 19.565c2.812 2.362 6.234 3.516 9.64 3.515 4.278 0 8.527-1.82 11.494-5.353 3.436-4.091 4.299-9.474 2.788-14.214h54.432v55.999c0 8.284 6.716 15 15 15s15-6.716 15-15v-70.998c0-8.284-6.716-15-15-15h-69.433c1.511-4.739.647-10.123-2.789-14.213-5.328-6.344-14.79-7.167-21.133-1.838l-23.293 19.566c-3.393 2.85-5.352 7.055-5.352 11.485 0 4.433 1.959 8.637 5.353 11.486z"/><path d="m236.647 395.515-23.292-19.566c-6.343-5.328-15.805-4.506-21.133 1.837-3.436 4.091-4.3 9.475-2.789 14.215h-54.433v-56c0-8.284-6.716-15-15-15s-15 6.716-15 15v71c0 8.284 6.716 15 15 15h69.433c-1.511 4.739-.647 10.123 2.789 14.213 2.967 3.532 7.215 5.353 11.494 5.353 3.405 0 6.829-1.153 9.64-3.515l23.292-19.565c3.392-2.851 5.352-7.055 5.352-11.487 0-4.431-1.959-8.636-5.353-11.485z"/><path d="m75 100.5h28.742c8.284 0 15-6.716 15-15s-6.716-15-15-15h-28.742c-8.284 0-15 6.716-15 15s6.715 15 15 15z"/><path d="m75 160.5h90c8.284 0 15-6.716 15-15s-6.716-15-15-15h-90c-8.284 0-15 6.716-15 15s6.715 15 15 15z"/><path d="m75 220.5h89.973c8.284 0 15-6.716 15-15s-6.716-15-15-15h-89.973c-8.284 0-15 6.716-15 15s6.715 15 15 15z"/><path d="m347 321.5h28.741c8.284 0 15-6.716 15-15s-6.716-15-15-15h-28.741c-8.284 0-15 6.716-15 15s6.716 15 15 15z"/><path d="m347 381.5h90c8.284 0 15-6.716 15-15s-6.716-15-15-15h-90c-8.284 0-15 6.716-15 15s6.716 15 15 15z"/><path d="m347 441.5h89.973c8.284 0 15-6.716 15-15s-6.716-15-15-15h-89.973c-8.284 0-15 6.716-15 15s6.716 15 15 15z"/></g></svg>