<svg id="Layer_1" enable-background="new 0 0 512 512" height="512" viewBox="0 0 512 512" width="512" xmlns="http://www.w3.org/2000/svg"><g><path d="m388.25 92c-5.734 0-11.414.475-17.002 1.418-11.24-53.628-58.789-93.418-115.248-93.418s-104.008 39.79-115.249 93.418c-5.587-.943-11.266-1.418-17.001-1.418-55.967 0-101.5 45.532-101.5 101.5 0 24.496 8.848 48.152 24.913 66.61 14.826 17.034 34.863 28.614 56.837 32.958v203.932c0 8.284 6.716 15 15 15h274c8.284 0 15-6.716 15-15v-203.951c20.846-4.112 39.915-14.66 54.591-30.443 17.514-18.833 27.159-43.375 27.159-69.106 0-55.968-45.532-101.5-101.5-101.5zm-254.25 390v-283h157.079v71.921c0 8.284 6.716 15 15 15h71.921v196.079zm244-247.292-35.708-35.708h35.708zm-56.921-14.495 35.708 35.708h-35.708zm86.921 41.996v-78.209c0-8.284-6.716-15-15-15h-274c-8.284 0-15 6.716-15 15v78.227c-30.068-8.671-51.75-36.718-51.75-68.727 0-39.426 32.075-71.5 71.5-71.5 8.424 0 16.665 1.447 24.494 4.303 4.466 1.629 9.441 1.044 13.409-1.577 3.967-2.621 6.456-6.969 6.709-11.717 2.48-46.547 40.975-83.009 87.638-83.009 46.662 0 85.157 36.462 87.638 83.009.253 4.748 2.742 9.095 6.709 11.717 3.966 2.622 8.941 3.207 13.408 1.577 7.83-2.855 16.071-4.303 24.495-4.303 39.425 0 71.5 32.074 71.5 71.5 0 32.224-21.82 60.057-51.75 68.709z"/><path d="m179 265.5h61.999c8.284 0 15-6.716 15-15s-6.716-15-15-15h-61.999c-8.284 0-15 6.716-15 15s6.716 15 15 15z"/><path d="m179 325.5h62.001c8.284 0 15-6.716 15-15s-6.716-15-15-15h-62.001c-8.284 0-15 6.716-15 15s6.716 15 15 15z"/><path d="m332.953 355.5h-153.953c-8.284 0-15 6.716-15 15s6.716 15 15 15h153.953c8.284 0 15-6.716 15-15s-6.716-15-15-15z"/><path d="m332.953 415.5h-153.953c-8.284 0-15 6.716-15 15s6.716 15 15 15h153.953c8.284 0 15-6.716 15-15s-6.716-15-15-15z"/></g></svg>