<svg id="Layer_1" enable-background="new 0 0 512 512" height="512" viewBox="0 0 512 512" width="512" xmlns="http://www.w3.org/2000/svg"><path d="m450.5 124.001h-54v-49.001c0-8.284-6.716-15-15-15h-133v-9.501c0-27.846-22.654-50.499-50.5-50.499s-50.5 22.653-50.5 50.499v9.501h-86c-8.284 0-15 6.716-15 15v358c0 8.284 6.716 15 15 15h54v49c0 8.284 6.716 15 15 15h320c8.284 0 15-6.716 15-15v-357.999c0-8.284-6.716-15-15-15zm-273-73.502c0-11.304 9.196-20.499 20.5-20.499s20.5 9.195 20.5 20.499v9.501h-41zm-101 39.501h142v62c0 8.271-6.729 15-15 15s-15-6.729-15-15v-24c0-8.284-6.716-15-15-15s-15 6.716-15 15v24c0 24.813 20.187 45 45 45s45-20.187 45-45v-62h118v328h-290zm359 392h-290v-34h236c8.284 0 15-6.716 15-15v-278.999h39z"/></svg>