<svg id="Layer_1" enable-background="new 0 0 512 512" height="512" viewBox="0 0 512 512" width="512" xmlns="http://www.w3.org/2000/svg"><g><path d="m436 0h-360c-8.284 0-15 6.716-15 15v482c0 8.284 6.716 15 15 15h360c8.284 0 15-6.716 15-15v-482c0-8.284-6.716-15-15-15zm-152 395v87h-56v-87c0-8.284-6.716-15-15-15h-122v-152h84.462c4.149 25.152 20.679 52.431 28.354 64.04 13.861 20.967 34.166 45.96 52.184 45.96s38.323-24.993 52.185-45.96c7.675-11.609 24.205-38.888 28.354-64.04h84.461v152h-122c-8.284 0-15 6.716-15 15zm-133-365h74.996v45.999h-74.996zm0 75.999h89.996c8.284 0 15-6.716 15-15v-60.999h75.004v75c0 8.284 6.716 15 15 15h75v78h-85.753c-8.582-35.809-40.845-62.515-79.247-62.515s-70.665 26.706-79.247 62.515h-25.753zm210-54.786 38.787 38.787h-38.787zm-105 255.935c-5.371-3.722-17.026-15.566-29.581-35.396-13.522-21.358-21.923-42.343-21.923-54.763 0-28.399 23.104-51.504 51.503-51.504s51.503 23.104 51.503 51.504c0 12.42-8.4 33.404-21.923 54.763-12.553 19.83-24.208 31.675-29.579 35.396zm165-238.361-38.787-38.787h38.787zm-300-38.787v168h-30v-168zm-30 380h107v72h-107zm223 72v-72h107v72z"/><ellipse cx="256" cy="214.5" rx="15" ry="15" transform="matrix(.924 -.383 .383 .924 -62.599 114.295)"/></g></svg>