<svg id="Layer_1" enable-background="new 0 0 512 512" height="512" viewBox="0 0 512 512" width="512" xmlns="http://www.w3.org/2000/svg"><g><path d="m136.041 90.001h149.999c8.284 0 15-6.716 15-15s-6.716-15-15-15h-149.999c-8.284 0-15 6.716-15 15s6.716 15 15 15z"/><path d="m136.041 150.002h149.999c8.284 0 15-6.716 15-15s-6.716-15-15-15h-149.999c-8.284 0-15 6.716-15 15s6.716 15 15 15z"/><path d="m136.041 210.002h240c8.284 0 15-6.716 15-15s-6.716-15-15-15h-240c-8.284 0-15 6.716-15 15s6.716 15 15 15z"/><path d="m391.041 255.002c0-8.284-6.716-15-15-15h-240c-8.284 0-15 6.716-15 15s6.716 15 15 15h240c8.284 0 15-6.716 15-15z"/><path d="m497 309h-46v-294c0-8.284-6.716-15-15-15h-360c-8.284 0-15 6.716-15 15v294h-46c-8.284 0-15 6.716-15 15v173c0 8.284 6.716 15 15 15h482c8.284 0 15-6.716 15-15v-173c0-8.284-6.716-15-15-15zm-76-240.213-38.787-38.787h38.787zm-60-17.574 38.787 38.787h-38.787zm-270-21.213h240v75c0 8.284 6.716 15 15 15h75v189h-59c-8.284 0-15 6.716-15 15v17.068c0 14.888-12.112 27-27 27h-128c-14.888 0-27-12.112-27-27v-17.068c0-8.284-6.716-15-15-15h-59zm391 452h-452v-143h105v2.068c0 31.43 25.57 57 57 57h128c31.43 0 57-25.57 57-57v-2.068h105z"/></g></svg>