<svg id="Layer_1" enable-background="new 0 0 512 512" height="512" viewBox="0 0 512 512" width="512" xmlns="http://www.w3.org/2000/svg"><path d="m436 0h-360c-8.284 0-15 6.716-15 15v482c0 8.284 6.716 15 15 15h360c8.284 0 15-6.716 15-15v-482c0-8.284-6.716-15-15-15zm-15 68.787-38.787-38.787h38.787zm-60-17.574 38.787 38.787h-38.787zm-170.595 244.759c.186.007.369.028.557.028.186 0 .366-.021.551-.028l16.489 44.852c1.73 4.706 1.099 9.731-1.733 13.79s-7.331 6.386-12.346 6.386h-5.925c-5.014 0-9.514-2.327-12.346-6.386-2.831-4.058-3.464-9.083-1.733-13.789zm-99.405 186.028v-452h84.962v60h-18.953c-8.284 0-15 6.716-15 15s6.716 15 15 15h18.953v28.001h-18.953c-8.284 0-15 6.716-15 15s6.716 15 15 15h18.953v28h-18.953c-8.284 0-15 6.716-15 15s6.716 15 15 15h18.953v12.308l-30.201 82.165c-5.085 13.832-3.107 29.274 5.29 41.308 8.396 12.033 22.209 19.218 36.947 19.218h5.925c14.738 0 28.551-7.185 36.948-19.219 8.397-12.033 10.374-27.477 5.288-41.309l-30.197-82.136v-40.336h19.047c8.284 0 15-6.716 15-15s-6.716-15-15-15h-19.047v-28h19.047c8.284 0 15-6.716 15-15s-6.716-15-15-15h-19.047v-28h19.047c8.284 0 15-6.716 15-15s-6.716-15-15-15h-19.047v-32h125.038v75c0 8.284 6.716 15 15 15h75v362z"/></svg>