<svg id="Layer_1" enable-background="new 0 0 512 512" height="512" viewBox="0 0 512 512" width="512" xmlns="http://www.w3.org/2000/svg"><g><path d="m105.706 90h120c8.284 0 15-6.716 15-15s-6.716-15-15-15h-120c-8.284 0-15 6.716-15 15s6.716 15 15 15z"/><path d="m105.706 150.002h120c8.284 0 15-6.716 15-15s-6.716-15-15-15h-120c-8.284 0-15 6.716-15 15s6.716 15 15 15z"/><path d="m105.706 210.001h210c8.284 0 15-6.716 15-15s-6.716-15-15-15h-210c-8.284 0-15 6.716-15 15s6.716 15 15 15z"/><path d="m283.706 240.002h-178c-8.284 0-15 6.716-15 15s6.716 15 15 15h178c8.284 0 15-6.716 15-15s-6.716-15-15-15z"/><path d="m225.706 300h-120c-8.284 0-15 6.716-15 15s6.716 15 15 15h120c8.284 0 15-6.716 15-15s-6.716-15-15-15z"/><path d="m425.473 403.9c18.233-14.62 29.939-37.059 29.939-62.193 0-38.822-27.905-71.232-64.706-78.271v-248.436c0-8.284-6.716-15-15-15h-330c-8.284 0-15 6.716-15 15v415c0 8.284 6.716 15 15 15h238.132c-8.728 15.359-13.721 33.107-13.721 52 0 8.284 6.716 15 15 15s15-6.716 15-15c0-41.673 33.898-75.577 75.569-75.587h.019s.013 0 .019 0c41.671.01 75.57 33.914 75.57 75.587 0 8.284 6.716 15 15 15s15-6.716 15-15c0-40.237-22.626-75.284-55.821-93.1zm-.061-62.193c0 27.4-22.285 49.691-49.681 49.705-.009 0-.017 0-.026 0s-.017 0-.026 0c-27.396-.014-49.68-22.306-49.68-49.705 0-27.408 22.298-49.707 49.706-49.707s49.707 22.299 49.707 49.707zm-64.706-272.92-38.787-38.787h38.787zm-60-17.574 38.787 38.787h-38.787zm8.561 363.787h-248.561v-385h210v75c0 8.284 6.716 15 15 15h75v143.435c-36.802 7.039-64.707 39.449-64.707 78.272 0 25.134 11.706 47.573 29.938 62.193-5.916 3.175-11.494 6.898-16.67 11.1z"/></g></svg>