<svg id="Layer_1" enable-background="new 0 0 511.834 511.834" height="512" viewBox="0 0 511.834 511.834" width="512" xmlns="http://www.w3.org/2000/svg"><g><path d="m435.917 0h-360c-8.284 0-15 6.716-15 15v231.663c0 5.532 3.045 10.615 7.922 13.226 4.877 2.609 10.795 2.324 15.398-.745l24.674-16.45 40.681 27.121c5.039 3.359 11.602 3.359 16.642 0l40.681-27.121 40.681 27.121c2.52 1.68 5.42 2.52 8.321 2.52s5.801-.84 8.321-2.52l40.681-27.121 40.681 27.121c5.039 3.359 11.603 3.359 16.642 0l40.681-27.121 24.674 16.45c4.603 3.069 10.521 3.355 15.398.745s7.922-7.693 7.922-13.226v-231.663c0-8.284-6.716-15-15-15zm-15 68.787-38.787-38.787h38.787zm-60-17.574 38.787 38.787h-38.787zm50.326 160.972c-5.039-3.358-11.603-3.36-16.642 0l-40.681 27.121-40.681-27.121c-2.52-1.68-5.42-2.52-8.321-2.52s-5.801.84-8.321 2.52l-40.681 27.121-40.681-27.121c-5.039-3.359-11.603-3.359-16.642 0l-40.681 27.121-40.681-27.121c-5.039-3.359-11.604-3.359-16.642 0l-9.674 6.45v-188.635h240v75c0 8.284 6.716 15 15 15h75v98.635z"/><path d="m444.237 307.017-32.995-21.997c-5.04-3.359-11.604-3.359-16.641 0l-40.682 27.121-40.681-27.121c-5.038-3.359-11.602-3.359-16.641 0l-40.681 27.121-40.681-27.121c-5.038-3.359-11.603-3.359-16.641 0l-40.681 27.121-40.682-27.121c-5.038-3.359-11.602-3.359-16.641 0l-32.995 21.997c-4.173 2.782-6.68 7.465-6.68 12.48v177.337c0 8.284 6.716 15 15 15h360c8.284 0 15-6.716 15-15v-177.337c.002-5.016-2.504-9.698-6.678-12.48zm-23.32 174.817h-330v-154.31l17.995-11.997 40.682 27.121c5.038 3.359 11.602 3.359 16.641 0l40.681-27.121 40.681 27.121c5.038 3.359 11.603 3.359 16.641 0l40.681-27.121 40.681 27.121c5.039 3.359 11.603 3.359 16.641 0l40.682-27.121 17.995 11.997v154.31z"/></g></svg>