<svg id="Layer_1" enable-background="new 0 0 512 512" height="512" viewBox="0 0 512 512" width="512" xmlns="http://www.w3.org/2000/svg"><g><path d="m416 0h-320c-8.284 0-15 6.716-15 15v405c0 8.284 6.716 15 15 15h105v62c0 8.284 6.716 15 15 15h80c8.284 0 15-6.716 15-15v-62h105c8.284 0 15-6.716 15-15v-405c0-8.284-6.716-15-15-15zm-15 68.787-38.787-38.787h38.787zm-60-17.574 38.787 38.787h-38.787zm-85 365.787c-24.538 0-44.5-19.963-44.5-44.5s19.962-44.5 44.5-44.5 44.5 19.963 44.5 44.5-19.962 44.5-44.5 44.5zm-25 65v-39.328c7.819 2.794 16.233 4.328 25 4.328s17.18-1.534 25-4.328v39.328zm92.025-77c4.785-9.828 7.476-20.854 7.476-32.5 0-41.079-33.421-74.5-74.5-74.5s-74.5 33.421-74.5 74.5c0 11.646 2.691 22.672 7.476 32.5h-77.977v-375h200v75c0 8.284 6.716 15 15 15h75v285z"/><path d="m156 87.999h110c8.284 0 15-6.716 15-15s-6.716-15-15-15h-110c-8.284 0-15 6.716-15 15s6.716 15 15 15z"/><path d="m156 148h110c8.284 0 15-6.716 15-15s-6.716-15-15-15h-110c-8.284 0-15 6.716-15 15s6.716 15 15 15z"/><path d="m356 178.001h-200c-8.284 0-15 6.716-15 15s6.716 15 15 15h200c8.284 0 15-6.716 15-15s-6.716-15-15-15z"/><path d="m356 238.002h-200c-8.284 0-15 6.716-15 15s6.716 15 15 15h200c8.284 0 15-6.716 15-15s-6.716-15-15-15z"/></g></svg>