<svg id="Layer_1" enable-background="new 0 0 512 512" height="512" viewBox="0 0 512 512" width="512" xmlns="http://www.w3.org/2000/svg"><g><path d="m75.744 90h120c8.284 0 15-6.716 15-15s-6.716-15-15-15h-120c-8.284 0-15 6.716-15 15s6.715 15 15 15z"/><path d="m75.744 150.002h120c8.284 0 15-6.716 15-15s-6.716-15-15-15h-120c-8.284 0-15 6.716-15 15s6.715 15 15 15z"/><path d="m75.744 210.001h123.785c8.284 0 15-6.716 15-15s-6.716-15-15-15h-123.785c-8.284 0-15 6.716-15 15s6.715 15 15 15z"/><path d="m191.757 255.002c0-8.284-6.716-15-15-15h-101.013c-8.284 0-15 6.716-15 15s6.716 15 15 15h101.013c8.284 0 15-6.716 15-15z"/><path d="m133.465 300h-57.721c-8.284 0-15 6.716-15 15s6.716 15 15 15h57.722c8.284 0 15-6.716 15-15s-6.716-15-15.001-15z"/><path d="m511.257 346.5c0-23.946-18.802-43.585-42.418-44.927-1.279-3.505-2.708-6.954-4.283-10.336 15.75-17.648 15.159-44.831-1.773-61.764s-44.116-17.525-61.764-1.771c-3.382-1.575-6.83-3.004-10.335-4.283-1.047-18.437-13.247-33.939-29.94-39.852v-168.567c0-8.284-6.716-15-15-15h-330c-8.284 0-15 6.716-15 15v415c0 8.284 6.716 15 15 15h201.823c2.123 6.93 5.91 13.271 11.165 18.526 16.933 16.934 44.115 17.524 61.764 1.771 3.383 1.574 6.831 3.004 10.335 4.282 1.342 23.617 20.98 42.42 44.927 42.42s43.585-18.804 44.927-42.42c3.505-1.279 6.953-2.708 10.335-4.282 8.232 7.353 18.769 11.372 29.944 11.372 12.043 0 23.344-4.668 31.82-13.145 16.933-16.933 17.523-44.113 1.772-61.763 1.575-3.383 3.004-6.831 4.283-10.336 23.617-1.34 42.418-20.979 42.418-44.925zm-180.514-277.714-38.786-38.786h38.786zm-60-17.573 38.788 38.787h-38.788zm-240-21.213h210v75c0 8.284 6.716 15 15 15h75v63.577c-16.68 5.921-28.866 21.415-29.913 39.842-3.505 1.279-6.953 2.708-10.335 4.282-8.232-7.352-18.769-11.372-29.944-11.372-12.043 0-23.344 4.668-31.82 13.145-8.476 8.476-13.144 19.776-13.144 31.819 0 11.176 4.019 21.711 11.371 29.944-1.575 3.383-3.004 6.831-4.283 10.336-23.617 1.342-42.417 20.98-42.417 44.927s18.801 43.585 42.418 44.927c1.279 3.506 2.708 6.953 4.283 10.336-3.522 3.943-6.269 8.42-8.186 13.237h-188.03zm427.09 331.5c-6.794 0-12.74 4.566-14.492 11.131-2.278 8.534-5.679 16.739-10.106 24.387-3.405 5.882-2.431 13.317 2.376 18.123l5.96 5.959c5.849 5.849 5.849 15.364 0 21.213-2.811 2.81-6.577 4.357-10.607 4.357s-7.796-1.547-10.607-4.358l-5.961-5.96c-4.806-4.804-12.24-5.779-18.121-2.374-7.642 4.424-15.847 7.824-24.387 10.104-6.563 1.753-11.13 7.698-11.13 14.492v8.426c0 8.271-6.729 15-15 15s-15-6.729-15-15v-8.426c0-6.794-4.566-12.74-11.131-14.492-8.532-2.278-16.737-5.678-24.388-10.105-2.345-1.357-4.936-2.018-7.509-2.018-3.881 0-7.723 1.504-10.611 4.394l-5.961 5.96c-5.848 5.85-15.364 5.849-21.214 0-2.81-2.81-4.357-6.576-4.357-10.606s1.547-7.797 4.356-10.605l5.96-5.96c4.806-4.806 5.78-12.242 2.375-18.123-4.425-7.644-7.825-15.849-10.106-24.389-1.753-6.563-7.698-11.129-14.492-11.129h-8.423c-8.271 0-15-6.729-15-15s6.729-15 15-15h8.423c6.794 0 12.74-4.566 14.492-11.131 2.279-8.534 5.679-16.739 10.107-24.387 3.404-5.882 2.43-13.317-2.375-18.122l-5.959-5.96c-2.81-2.81-4.357-6.577-4.357-10.607s1.547-7.797 4.357-10.606c2.81-2.81 6.576-4.357 10.606-4.357s7.796 1.548 10.606 4.357l5.961 5.961c4.805 4.805 12.24 5.779 18.122 2.375 7.643-4.425 15.848-7.825 24.388-10.105 6.563-1.753 11.129-7.698 11.129-14.492v-8.427c0-8.271 6.729-15 15-15s15 6.729 15 15v8.425c0 6.794 4.565 12.739 11.129 14.492 8.537 2.28 16.743 5.68 24.389 10.105 5.882 3.404 13.316 2.43 18.121-2.375l5.961-5.961c5.85-5.85 15.367-5.848 21.213 0 5.849 5.849 5.849 15.365.002 21.213l-5.961 5.96c-4.807 4.806-5.781 12.242-2.375 18.124 4.425 7.643 7.825 15.848 10.105 24.387 1.753 6.563 7.698 11.13 14.492 11.13h8.424c8.271 0 15 6.729 15 15s-6.729 15-15 15z"/><path d="m345.757 301.5c-24.813 0-45 20.187-45 45s20.187 45 45 45 45-20.187 45-45-20.187-45-45-45zm0 60c-8.271 0-15-6.729-15-15s6.729-15 15-15 15 6.729 15 15-6.729 15-15 15z"/></g></svg>