<svg id="Layer_1" enable-background="new 0 0 512 512" height="512" viewBox="0 0 512 512" width="512" xmlns="http://www.w3.org/2000/svg"><g><path d="m436 0h-360c-8.284 0-15 6.716-15 15v482c0 8.284 6.716 15 15 15s15-6.716 15-15v-467h240v75c0 8.284 6.716 15 15 15h75v377c0 8.284 6.716 15 15 15s15-6.716 15-15v-482c0-8.284-6.716-15-15-15zm-75 90v-38.787l38.787 38.787zm21.213-60h38.787v38.787z"/><path d="m136.001 339.186c-8.284 0-15 6.716-15 15v106.814c0 8.284 6.716 15 15 15s15-6.716 15-15v-106.814c0-8.285-6.716-15-15-15z"/><path d="m196.001 339.186c-8.284 0-15 6.716-15 15v142.814c0 8.284 6.716 15 15 15s15-6.716 15-15v-142.814c0-8.285-6.716-15-15-15z"/><path d="m256.001 339.186c-8.284 0-15 6.716-15 15v106.814c0 8.284 6.716 15 15 15s15-6.716 15-15v-106.814c0-8.285-6.716-15-15-15z"/><path d="m316.001 339.186c-8.284 0-15 6.716-15 15v142.814c0 8.284 6.716 15 15 15s15-6.716 15-15v-142.814c0-8.285-6.716-15-15-15z"/><path d="m376.001 339.186c-8.284 0-15 6.716-15 15v106.814c0 8.284 6.716 15 15 15s15-6.716 15-15v-106.814c0-8.285-6.716-15-15-15z"/><path d="m136 90.001h149.988c8.284 0 15-6.716 15-15s-6.716-15-15-15h-149.988c-8.284 0-15 6.716-15 15s6.716 15 15 15z"/><path d="m136 150.001h149.988c8.284 0 15-6.716 15-15s-6.716-15-15-15h-149.988c-8.284 0-15 6.716-15 15s6.716 15 15 15z"/><path d="m136 210.001h240c8.284 0 15-6.716 15-15s-6.716-15-15-15h-240c-8.284 0-15 6.716-15 15s6.716 15 15 15z"/><path d="m136 270.001h240c8.284 0 15-6.716 15-15s-6.716-15-15-15h-240c-8.284 0-15 6.716-15 15s6.716 15 15 15z"/></g></svg>