<svg id="Layer_1" enable-background="new 0 0 512 512" height="512" viewBox="0 0 512 512" width="512" xmlns="http://www.w3.org/2000/svg"><g><path d="m436 0h-360c-8.284 0-15 6.716-15 15v482c0 8.284 6.716 15 15 15h360c8.284 0 15-6.716 15-15v-482c0-8.284-6.716-15-15-15zm-15 68.787-38.787-38.787h38.787zm-60-17.574 38.787 38.787h-38.787zm-270 430.787v-452h240v75c0 8.284 6.716 15 15 15h75v362z"/><path d="m279.527 99.27c-12.135-11.935-17.816-14.27-23.527-14.27s-11.392 2.335-23.527 14.27c-7.393 7.269-15.519 16.537-22.882 26.096-14.678 19.057-32.174 46.671-32.174 70.01 0 24.838 11.596 47.006 29.644 61.417-.032.399-.061.8-.061 1.208v145c0 27.019 21.981 49 49.001 49 27.019-.001 48.999-21.982 48.999-49.001v-145c0-.408-.029-.808-.061-1.208 18.048-14.411 29.644-36.579 29.644-61.417 0-23.339-17.496-50.953-32.174-70.01-7.363-9.558-15.489-18.827-22.882-26.095zm-23.527 144.689c-26.789 0-48.583-21.795-48.583-48.584 0-4.229 1.228-9.146 3.309-14.43.092.001.181.014.274.014h90.279c2.078 5.278 3.304 10.191 3.304 14.416 0 26.789-21.794 48.584-48.583 48.584zm0-125.791c7.069 6.6 18.172 19.095 27.981 32.791h-55.961c9.808-13.696 20.911-26.191 27.98-32.791zm0 303.832c-10.477 0-19-8.523-19-19v-69.041h38v69.041c0 10.477-8.523 19-19 19zm19-118.041h-38v-32.336c6.088 1.518 12.449 2.336 19 2.336s12.912-.818 19-2.336z"/></g></svg>