<svg id="Layer_1" enable-background="new 0 0 512 512" height="512" viewBox="0 0 512 512" width="512" xmlns="http://www.w3.org/2000/svg"><path d="m504.587 133.175c-1.343-5.866-6.062-10.363-11.988-11.42-34.164-6.095-68.587-3.004-100.161 8.227v-114.982c0-8.284-6.716-15-15-15h-360c-8.284 0-15 6.716-15 15v482c0 8.284 6.716 15 15 15h360c8.284 0 15-6.716 15-15v-140.759c13.225-5.775 25.844-13.025 37.568-21.69 9.622-7.114 10.902-20.673 10.015-39.019l16.06 3.466c5.762 1.241 11.717-1.002 15.223-5.74 33.937-45.865 46.069-104.214 33.283-160.083zm-142.148-64.388-38.788-38.787h38.787v38.787zm-60-17.574 38.787 38.787h-38.787zm60 430.787h-330v-452h240v75c0 8.284 6.716 15 15 15h75v23.617c-16.83 9.435-32.397 21.418-46.094 35.795-43.795 45.971-62.401 109.755-50.502 171.889l-35.573 39.687c-5.529 6.169-5.011 15.652 1.158 21.182 2.864 2.566 6.441 3.83 10.007 3.83 4.114 0 8.212-1.684 11.175-4.988l35.799-39.939c8.378 1.087 16.786 1.63 25.176 1.63 16.517-.001 32.942-2.092 48.855-6.16v115.457zm90.211-214.432-25.662-5.538c-4.479-.968-9.149.164-12.687 3.072-3.538 2.906-5.555 7.271-5.476 11.849.045 2.621.291 5.942.576 9.787.414 5.592 1.451 19.598.433 25.386-28.009 19.938-61.765 30.538-96.001 30.582l79.725-88.946c5.529-6.169 5.011-15.652-1.158-21.182-6.169-5.528-15.652-5.011-21.181 1.158l-78.736 87.842c-1.956-44.641 14.149-88.479 45.581-121.473 36.133-37.926 87.555-56.325 139.24-50.296 6.823 41.084-1.961 83.058-24.654 117.759z"/></svg>