<svg id="Layer_1" enable-background="new 0 0 512 512" height="512" viewBox="0 0 512 512" width="512" xmlns="http://www.w3.org/2000/svg"><g><path d="m436 0h-360c-8.284 0-15 6.716-15 15v482c0 8.284 6.716 15 15 15h360c8.284 0 15-6.716 15-15v-482c0-8.284-6.716-15-15-15zm-15 68.787-38.787-38.787h38.787zm-60-17.574 38.787 38.787h-38.787zm-270 430.787v-452h240v75c0 8.284 6.716 15 15 15h75v362z"/><path d="m386.974 228.705c-.43-4.394-2.905-8.845-6.613-11.126 0 0-116.042-77.361-116.042-77.361-5.038-3.359-11.603-3.359-16.641 0l-116.042 77.361c-4.173 2.782-6.68 7.465-6.68 12.48v129.579c0 5.016 2.506 9.699 6.68 12.48l116.044 77.362c2.519 1.68 5.42 2.52 8.32 2.52s5.801-.84 8.32-2.52l116.042-77.361c4.173-2.781 6.68-7.465 6.68-12.48 0 0 0-129.581 0-129.584-.001-.448-.023-.898-.068-1.35zm-130.974-57.979 89 59.334-89 59.334-89-59.334zm-101.042 87.361 86.042 57.361v93.524l-86.042-57.361zm116.042 150.886v-93.524l86.042-57.361v93.524z"/></g></svg>