<svg id="Layer_1" enable-background="new 0 0 512 512" height="512" viewBox="0 0 512 512" width="512" xmlns="http://www.w3.org/2000/svg"><g><path d="m436 0h-360c-8.284 0-15 6.716-15 15v482c0 8.284 6.716 15 15 15h360c8.284 0 15-6.716 15-15v-482c0-8.284-6.716-15-15-15zm-15 68.787-38.787-38.787h38.787zm-60-17.574 38.787 38.787h-38.787zm-170-21.213v140.429l-12.68-7.089c-2.274-1.271-4.797-1.907-7.32-1.907s-5.045.636-7.32 1.907l-12.68 7.089v-140.429zm-100 452v-452h30v166c0 5.322 2.82 10.245 7.411 12.938 4.59 2.692 10.263 2.752 14.909.154l27.68-15.475 27.68 15.476c2.276 1.272 4.798 1.907 7.32 1.907 2.625 0 5.248-.688 7.589-2.062 4.591-2.693 7.411-7.616 7.411-12.938v-166h110v75c0 8.284 6.716 15 15 15h75v362z"/><path d="m376.004 242.001h-240.004c-8.284 0-15 6.716-15 15s6.716 15 15 15h240.004c8.284 0 15-6.716 15-15s-6.716-15-15-15z"/><path d="m136 332.001h185.918c8.284 0 15-6.716 15-15s-6.716-15-15-15h-185.918c-8.284 0-15 6.716-15 15s6.716 15 15 15z"/><path d="m376.004 362.001h-240.004c-8.284 0-15 6.716-15 15s6.716 15 15 15h240.004c8.284 0 15-6.716 15-15s-6.716-15-15-15z"/><path d="m321.918 422h-185.918c-8.284 0-15 6.716-15 15s6.716 15 15 15h185.918c8.284 0 15-6.716 15-15s-6.716-15-15-15z"/></g></svg>