<svg id="Layer_1" enable-background="new 0 0 512 512" height="512" viewBox="0 0 512 512" width="512" xmlns="http://www.w3.org/2000/svg"><g><path d="m436 0h-360c-8.284 0-15 6.716-15 15v482c0 8.284 6.716 15 15 15h360c8.284 0 15-6.716 15-15v-482c0-8.284-6.716-15-15-15zm-15 68.787-38.787-38.787h38.787zm-60-17.574 38.787 38.787h-38.787zm-270 430.787v-452h240v75c0 8.284 6.716 15 15 15h75v362z"/><path d="m136 263.266c-8.284 0-15 6.716-15 15v30.47c0 8.284 6.716 15 15 15s15-6.716 15-15v-30.47c0-8.285-6.716-15-15-15z"/><path d="m196.001 235.266c-8.284 0-15 6.716-15 15v86.47c0 8.284 6.716 15 15 15s15-6.716 15-15v-86.47c0-8.285-6.716-15-15-15z"/><path d="m256 180c-8.284 0-15 6.716-15 15v197.001c0 8.284 6.716 15 15 15s15-6.716 15-15v-197.001c0-8.284-6.716-15-15-15z"/><path d="m316 235.266c-8.284 0-15 6.716-15 15v86.47c0 8.284 6.716 15 15 15s15-6.716 15-15v-86.47c0-8.285-6.716-15-15-15z"/><path d="m376.001 263.266c-8.284 0-15 6.716-15 15v30.47c0 8.284 6.716 15 15 15s15-6.716 15-15v-30.47c0-8.285-6.716-15-15-15z"/></g></svg>