<svg id="Layer_1" enable-background="new 0 0 512 512" height="512" viewBox="0 0 512 512" width="512" xmlns="http://www.w3.org/2000/svg"><g><path d="m436 0h-360c-8.284 0-15 6.716-15 15v482c0 8.284 6.716 15 15 15h360c8.284 0 15-6.716 15-15v-482c0-8.284-6.716-15-15-15zm-15 68.787-38.787-38.787h38.787zm-60-17.574 38.787 38.787h-38.787zm-270 430.787v-452h240v75c0 8.284 6.716 15 15 15h75v362z"/><path d="m337 258c29.775 0 54-24.225 54-54s-24.225-54-54-54-54 24.225-54 54c0 4.586.579 9.039 1.66 13.294l-74.857 42.464c-9.406-7.951-21.551-12.758-34.803-12.758-29.775 0-54 24.225-54 54s24.225 54 54 54c13.252 0 25.397-4.807 34.804-12.758l74.857 42.464c-1.081 4.255-1.66 8.708-1.66 13.294 0 29.775 24.225 54 54 54s54-24.225 54-54-24.225-54-54-54c-14.373 0-27.442 5.656-37.128 14.845l-73.367-41.619c1.617-5.124 2.494-10.574 2.494-16.226s-.877-11.102-2.495-16.226l73.367-41.619c9.686 9.189 22.755 14.845 37.128 14.845zm0-78c13.233 0 24 10.767 24 24s-10.767 24-24 24-24-10.767-24-24 10.767-24 24-24zm-186 121c0-13.233 10.767-24 24-24s24 10.767 24 24-10.767 24-24 24-24-10.767-24-24zm186 73c13.233 0 24 10.767 24 24s-10.767 24-24 24-24-10.767-24-24 10.767-24 24-24z"/></g></svg>